<svg version="1.1" id="Layer_1" xmlns="http://www.w3.org/2000/svg" xmlns:xlink="http://www.w3.org/1999/xlink" x="0px" y="0px"
	 width="100%" viewBox="0 0 487 334" enable-background="new 0 0 487 334" xml:space="preserve">
<path fill="#000000" opacity="1.000000" stroke="none" 
	d="
M303.000000,335.000000 
	C202.030594,335.000000 101.561195,335.000000 1.045897,335.000000 
	C1.045897,223.731171 1.045897,112.462334 1.045897,1.096742 
	C163.219360,1.096742 325.438782,1.096742 487.829102,1.096742 
	C487.829102,112.333122 487.829102,223.666534 487.829102,335.000000 
	C426.462402,335.000000 364.981201,335.000000 303.000000,335.000000 
M169.500000,35.999058 
	C124.000328,35.999058 78.500648,35.990414 33.001019,36.031998 
	C31.257111,36.033592 29.027559,35.925171 27.855639,36.884052 
	C23.227270,40.671040 19.817993,44.787224 19.841755,51.754284 
	C20.095854,126.252884 19.999695,200.752670 19.999798,275.252136 
	C19.999800,276.418793 19.920292,277.592163 20.015970,278.751007 
	C20.611897,285.968842 26.043514,291.000061 33.205914,291.000122 
	C169.371597,291.001190 305.537292,291.001129 441.702972,291.000336 
	C448.702362,291.000275 453.995392,285.710663 453.996094,278.646790 
	C454.003815,201.814011 454.004791,124.981224 453.993988,48.148445 
	C453.993042,41.433304 448.588104,36.000313 441.998047,36.000191 
	C351.498688,35.998520 260.999359,35.999062 169.500000,35.999058 
z"/>
<path fill="#F0B904" opacity="1.000000" stroke="none" 
	d="
M170.000000,35.999058 
	C260.999359,35.999062 351.498688,35.998520 441.998047,36.000191 
	C448.588104,36.000313 453.993042,41.433304 453.993988,48.148445 
	C454.004791,124.981224 454.003815,201.814011 453.996094,278.646790 
	C453.995392,285.710663 448.702362,291.000275 441.702972,291.000336 
	C305.537292,291.001129 169.371597,291.001190 33.205914,291.000122 
	C26.043514,291.000061 20.611897,285.968842 20.015970,278.751007 
	C19.920292,277.592163 19.999800,276.418793 19.999798,275.252136 
	C19.999695,200.752670 20.095854,126.252884 19.841755,51.754284 
	C19.817993,44.787224 23.227270,40.671040 27.855639,36.884052 
	C29.027559,35.925171 31.257111,36.033592 33.001019,36.031998 
	C78.500648,35.990414 124.000328,35.999058 170.000000,35.999058 
M43.044590,98.645050 
	C43.641064,99.430023 44.237537,100.215004 44.978165,101.743164 
	C44.930111,102.495461 44.882057,103.247757 44.298882,104.208305 
	C44.477238,105.138870 44.655598,106.069435 44.978561,107.710663 
	C44.999992,108.435463 45.021427,109.160263 45.024460,110.499672 
	C45.030807,110.704536 45.037151,110.909401 45.006039,111.838921 
	C44.948635,112.559578 44.891235,113.280228 44.282761,114.252846 
	C43.594250,119.745010 42.806885,125.228874 42.343983,130.739990 
	C42.286961,131.418915 43.961662,132.243286 44.993347,133.472504 
	C44.993347,133.472504 45.113586,133.956223 44.797977,134.320694 
	C45.143131,134.880478 45.488289,135.440247 45.978184,136.927460 
	C45.985527,145.066559 46.009354,153.205704 45.997322,161.344772 
	C45.948700,194.229843 45.889027,227.114929 45.200935,260.257538 
	C42.860176,262.056763 42.192463,264.399872 44.387455,266.424713 
	C45.175228,267.151398 47.420105,266.298553 49.916656,266.021942 
	C53.944439,266.070190 57.972225,266.118408 62.281017,266.761932 
	C63.854031,266.563507 65.427040,266.365051 67.923950,266.021912 
	C72.949303,266.070160 77.974655,266.118408 83.281021,266.761902 
	C84.854027,266.563477 86.427040,266.365051 88.927444,266.021851 
	C100.618301,266.070129 112.309151,266.118378 124.281021,266.761932 
	C125.854034,266.563477 127.427048,266.365051 129.927460,266.021851 
	C191.965103,266.014496 254.002762,266.003540 316.040405,266.007080 
	C320.693573,266.007355 325.346771,266.110992 330.200958,266.850616 
	C332.631592,267.899200 335.055481,269.841370 337.493927,269.859833 
	C365.753540,270.073853 394.015503,270.032013 422.276367,269.930603 
	C424.508881,269.922607 426.955078,269.377197 428.914032,268.345245 
	C431.396851,267.037323 432.007690,264.921844 429.021820,262.072540 
	C429.014496,207.692184 428.999725,153.311844 429.007385,98.931488 
	C429.008606,90.287636 429.110962,81.643806 429.763916,72.715004 
	C429.799316,71.436340 429.834747,70.157677 429.870148,68.879013 
	C428.332092,68.970032 426.527191,68.566025 425.297394,69.228920 
	C413.491699,75.592400 401.754272,82.084549 390.053864,88.640808 
	C375.443512,96.827621 360.856873,105.058228 346.345734,113.418709 
	C344.621521,114.412102 343.435425,116.339409 341.345673,118.145645 
	C338.602234,119.444305 335.858795,120.742966 332.405853,122.171516 
	C328.466492,124.278984 324.494202,126.327377 320.593231,128.503616 
	C296.238190,142.090530 271.773773,155.489075 247.627991,169.438843 
	C239.977112,173.858994 233.398438,173.840118 226.297775,168.935822 
	C222.206757,166.110229 217.826538,163.680969 213.467575,161.270233 
	C203.438293,155.723495 193.271683,150.422607 183.289368,144.793961 
	C166.352264,135.243790 149.541336,125.470123 132.627747,115.877899 
	C112.519814,104.474075 92.364471,93.153778 72.219093,81.816078 
	C65.263000,77.901215 58.345242,73.909302 51.280300,70.199524 
	C45.358398,67.089951 41.694969,69.741249 42.142841,76.475685 
	C42.272991,78.432724 42.115395,80.407471 42.202969,82.369041 
	C42.435654,87.580833 42.730110,92.789871 43.044590,98.645050 
M89.756279,60.213093 
	C88.253830,59.258560 86.839172,57.852135 85.212669,57.536140 
	C84.373001,57.373013 83.156952,59.147232 82.021255,60.672935 
	C82.361603,61.410233 82.701942,62.147530 83.169624,63.581547 
	C86.528152,65.784248 89.798302,68.137947 93.260132,70.164169 
	C110.594017,80.309776 127.926758,90.459381 145.361496,100.429939 
	C158.323212,107.842461 171.473724,114.924026 184.478592,122.262100 
	C198.470291,130.157013 212.430176,138.110321 226.322632,146.178162 
	C232.273712,149.634171 237.575378,151.987946 244.708176,147.757004 
	C262.115875,137.431351 280.027466,127.955383 297.732178,118.130104 
	C302.658661,115.396133 307.609253,112.702545 312.481873,109.875145 
	C321.510376,104.636223 330.402374,99.156631 339.508087,94.057365 
	C356.613068,84.478424 373.847137,75.130203 390.980865,65.602142 
	C393.527374,64.186035 396.101440,62.094624 393.937561,58.852566 
	C391.934265,55.851162 388.917114,56.962322 386.343445,58.411690 
	C385.405243,58.940033 384.772217,60.010326 383.074127,60.978256 
	C286.377533,60.985477 189.680908,60.993191 92.984306,60.993008 
	C91.989540,60.993004 90.994774,60.888885 89.756279,60.213093 
z"/>
<path fill="#000000" opacity="1.000000" stroke="none" 
	d="
M333.115387,122.041626 
	C335.858795,120.742966 338.602234,119.444305 342.039001,118.056702 
	C346.772125,115.662003 350.786194,113.309692 354.856445,111.058975 
	C368.639435,103.437477 382.480865,95.920769 396.225311,88.230644 
	C406.985016,82.210510 417.634033,75.992485 428.632050,69.690567 
	C428.858002,71.089600 429.012299,72.044785 429.166565,72.999962 
	C429.110962,81.643806 429.008606,90.287636 429.007385,98.931488 
	C428.999725,153.311844 429.014496,207.692184 429.020813,262.950439 
	C429.013214,267.905243 425.957489,266.973083 423.649841,266.976044 
	C395.507935,267.012207 367.365845,267.025177 339.224030,266.963013 
	C336.148743,266.956207 333.074615,266.444214 329.999939,266.166565 
	C325.346771,266.110992 320.693573,266.007355 316.040405,266.007080 
	C254.002762,266.003540 191.965103,266.014496 129.051208,266.022095 
	C126.783318,266.070435 125.391663,266.118530 124.000008,266.166626 
	C112.309151,266.118378 100.618301,266.070129 88.051208,266.022095 
	C85.783318,266.070404 84.391663,266.118500 83.000008,266.166626 
	C77.974655,266.118408 72.949303,266.070160 67.049461,266.022125 
	C64.783318,266.070435 63.391663,266.118530 62.000008,266.166626 
	C57.972225,266.118408 53.944439,266.070190 49.080807,266.021454 
	C43.611385,265.547852 45.984303,262.268524 45.833435,260.000000 
	C45.889027,227.114929 45.948700,194.229843 45.997322,161.344772 
	C46.009354,153.205704 45.985527,145.066559 45.975147,136.159821 
	C45.685936,134.913513 45.399761,134.434875 45.113586,133.956223 
	C45.113586,133.956223 44.993347,133.472504 44.985619,132.823242 
	C45.174805,130.744980 45.575634,129.309601 45.531170,127.888168 
	C45.386284,123.256332 45.078773,118.629585 44.833839,114.000885 
	C44.891235,113.280228 44.948635,112.559578 45.277721,111.380714 
	C45.380554,110.576691 45.211708,110.230881 45.042862,109.885063 
	C45.021427,109.160263 44.999992,108.435463 44.978111,106.983734 
	C44.929771,105.504547 44.881886,104.752304 44.834000,104.000053 
	C44.882057,103.247757 44.930111,102.495461 44.974503,101.041260 
	C44.591648,99.559776 44.212452,98.780182 43.918350,97.582748 
	C44.312016,93.093880 44.705627,89.027054 44.907230,84.950737 
	C45.148945,80.063377 45.226871,75.167915 45.399857,69.482948 
	C53.664062,74.217918 60.640545,78.303841 67.699715,82.241539 
	C83.353798,90.973610 99.084053,99.569534 114.712891,108.346260 
	C122.149055,112.522202 129.350525,117.116318 136.789948,121.286156 
	C147.634476,127.364563 158.629776,133.173431 169.501007,139.204956 
	C179.490921,144.747513 189.441086,150.364410 199.335953,156.074722 
	C208.531296,161.381317 217.568634,166.963196 226.794830,172.214279 
	C232.520035,175.472794 238.217331,177.914902 244.953064,173.692383 
	C253.938004,168.059830 263.348572,163.103683 272.601501,157.901794 
	C290.912750,147.607422 309.279236,137.410141 327.510254,126.975952 
	C329.580261,125.791229 333.187592,125.841660 333.115387,122.041626 
z"/>
<path fill="#000000" opacity="1.000000" stroke="none" 
	d="
M83.042282,62.884830 
	C82.701942,62.147530 82.361603,61.410233 82.474899,60.339638 
	C85.285706,60.282021 87.642853,60.557697 90.000008,60.833370 
	C90.994774,60.888885 91.989540,60.993004 92.984306,60.993008 
	C189.680908,60.993191 286.377533,60.985477 383.939575,60.977104 
	C387.352081,60.566715 389.899170,60.157478 393.334412,59.605545 
	C392.202087,61.227592 391.783875,62.454880 390.939606,62.938820 
	C382.661194,67.683998 374.331543,72.341133 365.977448,76.952637 
	C356.111084,82.398918 346.124512,87.632332 336.338440,93.218033 
	C323.906189,100.314102 311.705536,107.817162 299.248901,114.868919 
	C289.586365,120.338913 279.634094,125.294487 269.902588,130.646057 
	C259.861023,136.168152 249.959335,141.944778 239.913193,147.458328 
	C238.735382,148.104706 236.723846,148.388657 235.617722,147.824036 
	C227.495300,143.678070 219.446503,139.377396 211.494766,134.911346 
	C206.577362,132.149506 201.956970,128.860306 197.050049,126.078026 
	C189.365280,121.720695 181.504059,117.675301 173.802460,113.346771 
	C162.435135,106.957993 151.158478,100.408104 139.813110,93.979973 
	C128.902771,87.798325 117.996956,81.606354 107.007988,75.566605 
	C99.088394,71.213844 91.035645,67.103371 83.042282,62.884830 
z"/>
<path fill="#F0B904" opacity="1.000000" stroke="none" 
	d="
M83.105957,63.233189 
	C91.035645,67.103371 99.088394,71.213844 107.007988,75.566605 
	C117.996956,81.606354 128.902771,87.798325 139.813110,93.979973 
	C151.158478,100.408104 162.435135,106.957993 173.802460,113.346771 
	C181.504059,117.675301 189.365280,121.720695 197.050049,126.078026 
	C201.956970,128.860306 206.577362,132.149506 211.494766,134.911346 
	C219.446503,139.377396 227.495300,143.678070 235.617722,147.824036 
	C236.723846,148.388657 238.735382,148.104706 239.913193,147.458328 
	C249.959335,141.944778 259.861023,136.168152 269.902588,130.646057 
	C279.634094,125.294487 289.586365,120.338913 299.248901,114.868919 
	C311.705536,107.817162 323.906189,100.314102 336.338440,93.218033 
	C346.124512,87.632332 356.111084,82.398918 365.977448,76.952637 
	C374.331543,72.341133 382.661194,67.683998 390.939606,62.938820 
	C391.783875,62.454880 392.202087,61.227592 393.334412,59.605545 
	C389.899170,60.157478 387.352081,60.566715 384.402466,60.904663 
	C384.772217,60.010326 385.405243,58.940033 386.343445,58.411690 
	C388.917114,56.962322 391.934265,55.851162 393.937561,58.852566 
	C396.101440,62.094624 393.527374,64.186035 390.980865,65.602142 
	C373.847137,75.130203 356.613068,84.478424 339.508087,94.057365 
	C330.402374,99.156631 321.510376,104.636223 312.481873,109.875145 
	C307.609253,112.702545 302.658661,115.396133 297.732178,118.130104 
	C280.027466,127.955383 262.115875,137.431351 244.708176,147.757004 
	C237.575378,151.987946 232.273712,149.634171 226.322632,146.178162 
	C212.430176,138.110321 198.470291,130.157013 184.478592,122.262100 
	C171.473724,114.924026 158.323212,107.842461 145.361496,100.429939 
	C127.926758,90.459381 110.594017,80.309776 93.260132,70.164169 
	C89.798302,68.137947 86.528152,65.784248 83.105957,63.233189 
z"/>
<path fill="#F0B905" opacity="1.000000" stroke="none" 
	d="
M332.760620,122.106575 
	C333.187592,125.841660 329.580261,125.791229 327.510254,126.975952 
	C309.279236,137.410141 290.912750,147.607422 272.601501,157.901794 
	C263.348572,163.103683 253.938004,168.059830 244.953064,173.692383 
	C238.217331,177.914902 232.520035,175.472794 226.794830,172.214279 
	C217.568634,166.963196 208.531296,161.381317 199.335953,156.074722 
	C189.441086,150.364410 179.490921,144.747513 169.501007,139.204956 
	C158.629776,133.173431 147.634476,127.364563 136.789948,121.286156 
	C129.350525,117.116318 122.149055,112.522202 114.712891,108.346260 
	C99.084053,99.569534 83.353798,90.973610 67.699715,82.241539 
	C60.640545,78.303841 53.664062,74.217918 45.399857,69.482948 
	C45.226871,75.167915 45.148945,80.063377 44.907230,84.950737 
	C44.705627,89.027054 44.312016,93.093880 43.710037,97.582581 
	C43.416630,98.000259 43.000000,98.000000 43.000000,98.000000 
	C42.730110,92.789871 42.435654,87.580833 42.202969,82.369041 
	C42.115395,80.407471 42.272991,78.432724 42.142841,76.475685 
	C41.694969,69.741249 45.358398,67.089951 51.280300,70.199524 
	C58.345242,73.909302 65.263000,77.901215 72.219093,81.816078 
	C92.364471,93.153778 112.519814,104.474075 132.627747,115.877899 
	C149.541336,125.470123 166.352264,135.243790 183.289368,144.793961 
	C193.271683,150.422607 203.438293,155.723495 213.467575,161.270233 
	C217.826538,163.680969 222.206757,166.110229 226.297775,168.935822 
	C233.398438,173.840118 239.977112,173.858994 247.627991,169.438843 
	C271.773773,155.489075 296.238190,142.090530 320.593231,128.503616 
	C324.494202,126.327377 328.466492,124.278984 332.760620,122.106575 
z"/>
<path fill="#F0B905" opacity="1.000000" stroke="none" 
	d="
M330.100464,266.508606 
	C333.074615,266.444214 336.148743,266.956207 339.224030,266.963013 
	C367.365845,267.025177 395.507935,267.012207 423.649841,266.976044 
	C425.957489,266.973083 429.013214,267.905243 429.093201,263.414124 
	C432.007690,264.921844 431.396851,267.037323 428.914032,268.345245 
	C426.955078,269.377197 424.508881,269.922607 422.276367,269.930603 
	C394.015503,270.032013 365.753540,270.073853 337.493927,269.859833 
	C335.055481,269.841370 332.631592,267.899200 330.100464,266.508606 
z"/>
<path fill="#F0B905" opacity="1.000000" stroke="none" 
	d="
M429.465240,72.857483 
	C429.012299,72.044785 428.858002,71.089600 428.632050,69.690567 
	C417.634033,75.992485 406.985016,82.210510 396.225311,88.230644 
	C382.480865,95.920769 368.639435,103.437477 354.856445,111.058975 
	C350.786194,113.309692 346.772125,115.662003 342.366089,117.900787 
	C343.435425,116.339409 344.621521,114.412102 346.345734,113.418709 
	C360.856873,105.058228 375.443512,96.827621 390.053864,88.640808 
	C401.754272,82.084549 413.491699,75.592400 425.297394,69.228920 
	C426.527191,68.566025 428.332092,68.970032 429.870148,68.879013 
	C429.834747,70.157677 429.799316,71.436340 429.465240,72.857483 
z"/>
<path fill="#F0B905" opacity="1.000000" stroke="none" 
	d="
M44.558300,114.126862 
	C45.078773,118.629585 45.386284,123.256332 45.531170,127.888168 
	C45.575634,129.309601 45.174805,130.744980 44.905880,132.587097 
	C43.961662,132.243286 42.286961,131.418915 42.343983,130.739990 
	C42.806885,125.228874 43.594250,119.745010 44.558300,114.126862 
z"/>
<path fill="#F0B905" opacity="1.000000" stroke="none" 
	d="
M45.517185,260.128784 
	C45.984303,262.268524 43.611385,265.547852 48.622467,266.093781 
	C47.420105,266.298553 45.175228,267.151398 44.387455,266.424713 
	C42.192463,264.399872 42.860176,262.056763 45.517185,260.128784 
z"/>
<path fill="#F0B904" opacity="1.000000" stroke="none" 
	d="
M89.878143,60.523232 
	C87.642853,60.557697 85.285706,60.282021 82.519753,60.026222 
	C83.156952,59.147232 84.373001,57.373013 85.212669,57.536140 
	C86.839172,57.852135 88.253830,59.258560 89.878143,60.523232 
z"/>
<path fill="#F0B905" opacity="1.000000" stroke="none" 
	d="
M62.140511,266.464294 
	C63.391663,266.118530 64.783318,266.070435 66.587509,266.094482 
	C65.427040,266.365051 63.854031,266.563507 62.140511,266.464294 
z"/>
<path fill="#F0B905" opacity="1.000000" stroke="none" 
	d="
M83.140518,266.464233 
	C84.391663,266.118500 85.783318,266.070404 87.587509,266.094452 
	C86.427040,266.365051 84.854027,266.563477 83.140518,266.464233 
z"/>
<path fill="#F0B905" opacity="1.000000" stroke="none" 
	d="
M124.140518,266.464294 
	C125.391663,266.118530 126.783318,266.070435 128.587524,266.094482 
	C127.427048,266.365051 125.854034,266.563477 124.140518,266.464294 
z"/>
<path fill="#F0B905" opacity="1.000000" stroke="none" 
	d="
M44.566441,104.104179 
	C44.881886,104.752304 44.929771,105.504547 44.905807,106.628403 
	C44.655598,106.069435 44.477238,105.138870 44.566441,104.104179 
z"/>
<path fill="#F0B905" opacity="1.000000" stroke="none" 
	d="
M43.022293,98.322525 
	C43.000000,98.000000 43.416630,98.000259 43.624947,98.000427 
	C44.212452,98.780182 44.591648,99.559776 44.902428,100.669678 
	C44.237537,100.215004 43.641064,99.430023 43.022293,98.322525 
z"/>
<path fill="#F0B905" opacity="1.000000" stroke="none" 
	d="
M44.955784,134.138458 
	C45.399761,134.434875 45.685936,134.913513 45.902779,135.696106 
	C45.488289,135.440247 45.143131,134.880478 44.955784,134.138458 
z"/>
<path fill="#F0B905" opacity="1.000000" stroke="none" 
	d="
M45.033661,110.192368 
	C45.211708,110.230881 45.380554,110.576691 45.296448,111.018387 
	C45.037151,110.909401 45.030807,110.704536 45.033661,110.192368 
z"/>
</svg>