<svg version="1.1" id="Layer_1" xmlns="http://www.w3.org/2000/svg" xmlns:xlink="http://www.w3.org/1999/xlink" x="0px" y="0px"
	 width="100%" viewBox="0 0 775 718" enable-background="new 0 0 775 718" xml:space="preserve">
<path fill="#000000" opacity="1.000000" stroke="none" 
	d="
M377.000000,719.000000 
	C251.333328,719.000000 126.166664,719.000000 1.000000,719.000000 
	C1.000000,479.666656 1.000000,240.333328 1.000000,1.000000 
	C259.333344,1.000000 517.666687,1.000000 776.000000,1.000000 
	C776.000000,240.333328 776.000000,479.666656 776.000000,719.000000 
	C643.166687,719.000000 510.333344,719.000000 377.000000,719.000000 
M223.432800,248.941345 
	C236.510895,240.463120 249.431473,231.727997 262.714355,223.583786 
	C274.437683,216.395798 276.606720,213.926910 272.723816,200.727539 
	C268.388763,185.991196 263.039185,171.435013 256.736572,157.427887 
	C249.940781,142.324646 242.107056,127.604881 233.638214,113.364845 
	C227.066086,102.314064 218.928574,92.177910 211.208267,81.843338 
	C210.001877,80.228432 207.081955,78.562668 205.344666,78.904411 
	C197.594803,80.428909 189.521790,81.666992 182.453476,84.931274 
	C174.869461,88.433716 167.904434,93.618614 161.322113,98.885201 
	C139.773895,116.126175 120.819450,135.561493 109.113533,161.208511 
	C103.628654,173.225571 99.302086,185.525955 97.797195,198.569809 
	C95.622414,217.420029 99.228783,236.007721 102.539574,254.403046 
	C105.085953,268.551147 109.110252,282.498108 113.383324,296.253113 
	C118.053200,311.285431 123.149513,326.249176 129.172318,340.781830 
	C137.549484,360.995331 146.569000,380.968597 156.048584,400.691406 
	C164.315796,417.891815 172.898392,435.018036 182.597992,451.434723 
	C197.858795,477.263916 213.498001,502.925446 230.251755,527.799377 
	C244.307037,548.666870 259.624420,568.758240 275.417328,588.359863 
	C289.899506,606.334778 305.846100,623.186157 324.038147,637.529114 
	C332.707367,644.364075 341.916931,651.378357 352.049957,655.268616 
	C364.117706,659.901733 377.323029,662.183472 390.246216,663.826843 
	C407.553711,666.027527 424.948608,665.494507 442.276489,662.122986 
	C459.601501,658.752075 475.665283,652.783325 490.250458,642.817749 
	C504.578125,633.028137 507.615234,623.704468 501.186096,608.580505 
	C500.604401,607.212158 499.800720,605.936951 499.083771,604.627441 
	C487.855316,584.118408 473.570740,565.766785 458.189880,548.330200 
	C447.878082,536.640259 436.607208,525.779236 425.506561,514.809326 
	C420.032104,509.399445 416.522430,509.206757 409.769318,512.519775 
	C404.268951,515.218323 398.765320,517.910339 393.275146,520.629517 
	C383.921295,525.262268 374.474274,529.722839 365.281921,534.657288 
	C361.887238,536.479553 358.885895,536.768494 355.987915,534.620117 
	C350.536987,530.579102 344.419342,526.973450 340.170471,521.863464 
	C328.299255,507.586243 316.611267,493.070251 306.030365,477.829681 
	C294.318542,460.960205 283.287048,443.541687 273.093170,425.713928 
	C259.582092,402.084686 246.514725,378.149475 234.500290,353.733795 
	C225.439606,335.320801 217.836472,316.134460 210.560318,296.922791 
	C206.845505,287.114319 202.999817,276.885651 204.092697,266.015259 
	C204.362473,263.331757 206.408981,260.206482 208.584183,258.465515 
	C212.967468,254.957214 218.000351,252.260468 223.432800,248.941345 
z"/>
<path fill="#EFB804" opacity="1.000000" stroke="none" 
	d="
M223.099030,249.085144 
	C218.000351,252.260468 212.967468,254.957214 208.584183,258.465515 
	C206.408981,260.206482 204.362473,263.331757 204.092697,266.015259 
	C202.999817,276.885651 206.845505,287.114319 210.560318,296.922791 
	C217.836472,316.134460 225.439606,335.320801 234.500290,353.733795 
	C246.514725,378.149475 259.582092,402.084686 273.093170,425.713928 
	C283.287048,443.541687 294.318542,460.960205 306.030365,477.829681 
	C316.611267,493.070251 328.299255,507.586243 340.170471,521.863464 
	C344.419342,526.973450 350.536987,530.579102 355.987915,534.620117 
	C358.885895,536.768494 361.887238,536.479553 365.281921,534.657288 
	C374.474274,529.722839 383.921295,525.262268 393.275146,520.629517 
	C398.765320,517.910339 404.268951,515.218323 409.769318,512.519775 
	C416.522430,509.206757 420.032104,509.399445 425.506561,514.809326 
	C436.607208,525.779236 447.878082,536.640259 458.189880,548.330200 
	C473.570740,565.766785 487.855316,584.118408 499.083771,604.627441 
	C499.800720,605.936951 500.604401,607.212158 501.186096,608.580505 
	C507.615234,623.704468 504.578125,633.028137 490.250458,642.817749 
	C475.665283,652.783325 459.601501,658.752075 442.276489,662.122986 
	C424.948608,665.494507 407.553711,666.027527 390.246216,663.826843 
	C377.323029,662.183472 364.117706,659.901733 352.049957,655.268616 
	C341.916931,651.378357 332.707367,644.364075 324.038147,637.529114 
	C305.846100,623.186157 289.899506,606.334778 275.417328,588.359863 
	C259.624420,568.758240 244.307037,548.666870 230.251755,527.799377 
	C213.498001,502.925446 197.858795,477.263916 182.597992,451.434723 
	C172.898392,435.018036 164.315796,417.891815 156.048584,400.691406 
	C146.569000,380.968597 137.549484,360.995331 129.172318,340.781830 
	C123.149513,326.249176 118.053200,311.285431 113.383324,296.253113 
	C109.110252,282.498108 105.085953,268.551147 102.539574,254.403046 
	C99.228783,236.007721 95.622414,217.420029 97.797195,198.569809 
	C99.302086,185.525955 103.628654,173.225571 109.113533,161.208511 
	C120.819450,135.561493 139.773895,116.126175 161.322113,98.885201 
	C167.904434,93.618614 174.869461,88.433716 182.453476,84.931274 
	C189.521790,81.666992 197.594803,80.428909 205.344666,78.904411 
	C207.081955,78.562668 210.001877,80.228432 211.208267,81.843338 
	C218.928574,92.177910 227.066086,102.314064 233.638214,113.364845 
	C242.107056,127.604881 249.940781,142.324646 256.736572,157.427887 
	C263.039185,171.435013 268.388763,185.991196 272.723816,200.727539 
	C276.606720,213.926910 274.437683,216.395798 262.714355,223.583786 
	C249.431473,231.727997 236.510895,240.463120 223.099030,249.085144 
z"/>
</svg>